<?xml version="1.0" encoding="UTF-8" standalone="no"?>
<svg
   version="1.1"
   viewBox="0 0 1024 1024"
   xml:space="preserve"
   id="svg8"
   sodipodi:docname="MS-DOS_logo_black_square_background.svg"
   width="1024"
   height="1024"
   inkscape:version="1.3.2 (091e20ef0f, 2023-11-25, custom)"
   xmlns:inkscape="http://www.inkscape.org/namespaces/inkscape"
   xmlns:sodipodi="http://sodipodi.sourceforge.net/DTD/sodipodi-0.dtd"
   xmlns="http://www.w3.org/2000/svg"
   xmlns:svg="http://www.w3.org/2000/svg"><defs
     id="defs8" /><sodipodi:namedview
     id="namedview8"
     pagecolor="#ffffff"
     bordercolor="#000000"
     borderopacity="0.25"
     inkscape:showpageshadow="2"
     inkscape:pageopacity="0.0"
     inkscape:pagecheckerboard="0"
     inkscape:deskcolor="#d1d1d1"
     inkscape:zoom="0.83593217"
     inkscape:cx="477.90959"
     inkscape:cy="191.40309"
     inkscape:window-width="1600"
     inkscape:window-height="828"
     inkscape:window-x="0"
     inkscape:window-y="0"
     inkscape:window-maximized="1"
     inkscape:current-layer="svg8" /><g
     transform="translate(170.5,73.602)"
     id="g8"><path
       d="m 38,59 v 366 h 72 V 213 l 50,212 h 70 l 50,-212 v 212 h 72 V 59 H 247 L 195,276 143,59 Z"
       id="path1" /><path
       d="m 500,52 c -96,0 -132,63.721 -132,118 0,126 200,85.221 200,148 0,23.314 -6.8417,44 -64,44 -57.1583,0 -64,-51 -64,-51 h -75 c 0,54 50,118 140,118 97.941,0 140,-63.903 140,-118 0,-119.85 -203,-93 -203,-147 0,-32.918 30,-44 60,-44 50.984,0 60,50 60,50 h 70 C 632,115.903 584,52 500,52 Z"
       id="path2" /><path
       d="m 38,449 v 367.7 h 152.65 c 0,0 144.6,-6.4495 144.6,-183.85 0,-43.684 -8.7917,-76.961 -22.01,-102.37 -14.318,4.9682 -23.807,13.301 -30.881,24.174 -11.836,18.193 -16.311,45.901 -16.311,78.043 0,111.4 -71.268,111.7 -71.268,111.7 h -83.447 v -223.1 h 66.104 c 9.1888,-18.78 20.95,-34.543 34.949,-47.344 6.2038,-5.6727 12.819,-10.707 19.746,-15.221 -23.376,-8.8872 -41.482,-9.7363 -41.482,-9.7363 z"
       id="path3" /><path
       d="m 349.5,441.3 c -100.24,0 -181.5,48.868 -181.5,191.4 0,39.924 6.3828,72.491 17.766,98.701 h 8.9609 c 0,0 13.132,0.11436 27.656,-11.299 14.524,-11.413 30.666,-34.476 30.666,-87.402 0,-65.305 16.395,-118.43 92.293,-120.31 5.4475,-15.611 14.128,-30.455 26.783,-43.186 8.6221,-8.6737 19.027,-16.221 31.205,-22.387 -17.009,-3.7669 -35.087,-5.5176 -53.83,-5.5176 z"
       id="path4" /><path
       d="m 543.14,608.6 c 0.55081,7.7612 0.86328,15.769 0.86328,24.096 0,17.655 -1.2958,34.032 -3.7012,49.254 17.824,6.964 29.477,15.177 29.477,27.281 0,24.763 -9.2871,48.494 -77.385,48.494 -74.289,0 -76.352,-57.779 -76.352,-57.779 h -74.289 c 0,61.907 52.622,124.85 151.67,124.85 105.24,0 148.58,-51.153 148.58,-119.69 0,-55.808 -47.641,-80.598 -98.863,-96.504 z"
       id="path5" /><path
       d="m 488.26,442 c -102.15,0 -137.23,58.813 -137.23,114.53 0,49.989 37.526,75.71 81.479,92.461 0.28599,-5.2843 0.43555,-10.713 0.43555,-16.293 0,-27.254 -3.1559,-51.381 -11.387,-69.076 -1.5796,-2.7915 -2.4297,-5.8234 -2.4297,-9.1562 0,-33.063 30.953,-45.398 71.193,-45.398 65.002,0 67.066,51.59 67.066,51.59 h 73.256 c 0,-68.098 -55.717,-118.66 -142.39,-118.66 z"
       id="path6" /><path
       d="m 319.6,749.98 c -14.05,23.558 -31.737,40.485 -49.506,52.178 -2.9783,1.9598 -5.9528,3.736 -8.918,5.4277 26.145,11.471 56.252,16.508 88.322,16.508 19.554,0 38.37,-1.934 56.018,-6.0469 -30.314,-15.483 -52.246,-38.774 -64.713,-65.199 -7.6898,-0.42133 -14.74,-1.3922 -21.203,-2.8672 z"
       id="path7" /><path
       d="m 490.33,522.07 c -18.792,0 -34.647,3.1663 -44.291,8.6172 -9.6442,5.451 -13.902,11.306 -13.902,23.781 0,0.50284 0.0416,0.95316 0.12695,1.3906 10.411,20.85 13.689,47.629 13.689,76.842 0,29.784 -3.4262,57.022 -14.326,78.041 1.1982,3.2922 2.9081,6.9964 5.4883,10.799 7.6597,11.288 21.503,23.189 55.277,23.189 5.2088,0 9.8573,-0.1998 14.26,-0.48242 15.457,-28.241 24.35,-64.891 24.35,-111.55 0,-45.292 -8.3718,-81.164 -23,-109.06 -5.0447,-0.98932 -10.86,-1.5703 -17.672,-1.5703 z"
       id="path8" /></g></svg>
