<?xml version="1.0" encoding="UTF-8" standalone="no"?>
<svg
   version="1.1"
   id="Layer_1"
   x="0"
   y="0"
   viewBox="0 0 200 200"
   xml:space="preserve"
   sodipodi:docname="orcharhino_icon_greyscale.svg"
   inkscape:version="1.3.2 (091e20ef0f, 2023-11-25, custom)"
   xmlns:inkscape="http://www.inkscape.org/namespaces/inkscape"
   xmlns:sodipodi="http://sodipodi.sourceforge.net/DTD/sodipodi-0.dtd"
   xmlns:xlink="http://www.w3.org/1999/xlink"
   xmlns="http://www.w3.org/2000/svg"
   xmlns:svg="http://www.w3.org/2000/svg"><sodipodi:namedview
     id="namedview6"
     pagecolor="#ffffff"
     bordercolor="#000000"
     borderopacity="0.25"
     inkscape:showpageshadow="2"
     inkscape:pageopacity="0.0"
     inkscape:pagecheckerboard="0"
     inkscape:deskcolor="#d1d1d1"
     inkscape:zoom="3.23"
     inkscape:cx="99.845201"
     inkscape:cy="100"
     inkscape:window-width="1600"
     inkscape:window-height="828"
     inkscape:window-x="0"
     inkscape:window-y="0"
     inkscape:window-maximized="1"
     inkscape:current-layer="Layer_1" /><style
     id="style1">.st0,.st3{fill-rule:evenodd;clip-rule:evenodd;fill:#fff}.st3{fill:#39602e}</style><circle
     class="st0"
     cx="100.5"
     cy="99.5"
     r="99"
     id="circle1"
     style="filter:url(#filter7)" /><defs
     id="defs1"><circle
       id="SVGID_1_"
       cx="100.5"
       cy="99.5"
       r="99" /><filter
       style="color-interpolation-filters:sRGB;"
       inkscape:label="Greyscale"
       id="filter6"
       x="0"
       y="0"
       width="1"
       height="1"><feColorMatrix
         values="0.21 0.72 0.072 0 0 0.21 0.72 0.072 0 0 0.21 0.72 0.072 0 0 0 0 0 1 0 "
         id="feColorMatrix6" /></filter><filter
       style="color-interpolation-filters:sRGB;"
       inkscape:label="Greyscale"
       id="filter7"
       x="0"
       y="0"
       width="1"
       height="1"><feColorMatrix
         values="0.21 0.72 0.072 0 0 0.21 0.72 0.072 0 0 0.21 0.72 0.072 0 0 0 0 0 1 0 "
         id="feColorMatrix7" /></filter></defs><clipPath
     id="SVGID_2_"><use
       xlink:href="#SVGID_1_"
       overflow="visible"
       id="use1" /></clipPath><g
     id="Layer_1_1_"
     clip-path="url(#SVGID_2_)"
     style="filter:url(#filter6)"><path
       d="M311.5 252.1c-1.3-3-3.2-4.1-3.7-7.5-.8-5.2 1.6-12.6.7-17.2-.9-4.6-5.7-10-8.4-12.6-.9-17.6-5.4-27.5-17.2-40.5-9.7-10.7-27.9-18.2-41-17.1-.8.1-1.2-.1-1.6-1.1-7.9-22.4-13.6-36.5-18.9-47.7-6-12.7-12.4-19.7-20.2-26.2-5.5-4.5-11.9-7.7-18-9.1-7.3-1.7-14.2-1.8-26.7 1.7 9.2-6.8 10.7-16.3 6.4-18.5-4-2-8.2-.6-11.2 3.1-3.5 4.1-5.7 11-7.2 18 .1-5-.7-11-1.6-13.5-2.5-6.9-7.6-10.3-10.7-8.9-3.5 1.6-4.2 5.8-3.3 9.9 1 4.7 4.8 9.3 9.3 14-4 .8-24.4 5.4-27.1 5.5-10.4.6-24.4-17-27.9-23.7.1 5.5 4.4 22.5 6 28.1-16 1.8-39.5-23.4-52.7-50.6C40 57.1 46 81.4 51 103.3c4.5 19.8 8.3 36.4 10.2 44.8 3.1 13.6 11.9 23.5 20.8 23.7 4.3 6.6 24.4-.2 29-1.3 11.1-2.7 12.8-3.3 17.3-3.6 6-.4 11.5 3.5 12.7 7.6 1 3.5 1.8 8.3-5.5 14.7-8.4 7.3-20.1 15.2-29.4 17.8-.7.2-.6.3-1.9-.2-2.3-.8-9.5-8.4-15.2-7.3-4 .7-4.2 3-4.5 5 0 .3-.1.7-.1 1.1-4 .2-15.1 1-18 1.6-2.9.6-5.3 1.7-6.6 3.2-1.7 2.1-1.3 6.1.2 7.2 2.2 1.5 6.3 3.1 13.8 2.3-3.7 3.8-.1 11.4 2 11.4h.8c-.2.1-.4.1-.5.2-3.3 2.8-2.1 10 .6 11 3.6 1.3 12.5 1 15.6.4 1-.2 1.9-.8 2.7-1.6 5.9 1.3 10-2.7 13.6-6.6.6-.7 1-.7 1.9-.3 2.4 1 18.7 1.8 31.5-2.2.3 9.2 5.3 21.2 15.9 28.9-3.9 9.1-6.5 24.7-7 38.3-.3 10.3.7 19.7 3 22.6-9.8 9.2-11.1 13.5-10.7 17.3.6 5.5 8.4 10.5 24.9 8.7 20.1-2.1 27.3-4.1 28.8-4.9.4 3.7 5.3 7 12.8 5.8 11.4-1.8 49.3-6.2 55.9-6.9 5.5-.6 12.7-8.8 12.1-14.1-2.4-22.5-5.7-24.8-6.4-35.3-1.3-19.5-1.6-36.3-3.1-50-1-9.4-4.2-12-5.4-21.8-.9-7.5.1-10.8.4-12.2.3-1.6.5-1.5 1.8-.7 2.1 1.2 12.3 7.4 12.9 22.6-3.1 3.4-7.2 9.4-5.8 12.2 2.4 4.9 10.2.9 16.4-3.4 1.2.2 3.2.3 3.8 3.3 1.9 9.7 9.3 13.6 15.7 14.9 4 .5 4.9-2.3 3.5-5.4"
       fill-rule="evenodd"
       clip-rule="evenodd"
       fill="#89c040"
       id="path1" /><path
       class="st0"
       d="M150.4 109.4c-1-9.3-9.1-16-18.2-15s-15.6 9.3-14.7 18.5c1 9.3 9.1 16 18.2 15 9.2-1 15.7-9.3 14.7-18.5"
       id="path2" /><path
       class="st3"
       d="M135.7 127.3c-8.7.9-16.6-5.6-17.6-14.5-.9-8.9 5.4-16.9 14.1-17.9 8.7-.9 16.6 5.6 17.6 14.5 1 9-5.3 17-14.1 17.9m-3.5-33.6c-9.4 1-16.2 9.6-15.2 19.2s9.5 16.6 18.9 15.6c9.4-1 16.2-9.6 15.2-19.2-1.1-9.6-9.5-16.5-18.9-15.6"
       id="path3" /><path
       class="st3"
       d="M310.8 255.8c-.5.6-1.7.5-2.4.4-4.7-.9-12.9-3.9-14.8-14-.7-3.5-3.2-3.9-4.4-4.1h-.3c-.3 0-.6 0-.8.2-5.8 4.1-10.4 6-13 5.4-.8-.2-1.4-.7-1.8-1.5-1-2 2.1-7.3 5.6-11 .2-.2.3-.5.3-.8-.6-14.4-9.6-21.2-13.4-23.4-.9-.5-1.5-.9-2.3-.6-.8.3-.9 1.2-1.1 2 0 .1-.1.3-.1.4-.4 1.7-1.1 5.2-.3 12.1.6 5.1 1.7 8.3 2.8 11.4 1.1 3 2.1 5.9 2.6 10.5.9 8.1 1.3 17.1 1.8 27.5.4 7.1.7 14.5 1.3 22.5.3 4.7 1.1 7.7 2.1 11.5 1.3 5 2.9 11.1 4.3 23.8.5 4.7-6.2 12.4-11.2 12.9-6.6.7-44.6 5-55.9 6.9-3.9.6-7.3 0-9.5-1.7-1.2-.9-1.9-2-2-3.2-.3-3.1 1.2-8.7 6.7-14.2.3-.3.4-.7.2-1.1-8.2-22.1-5.2-40.2-1.1-51.5 4.6-12.8 10.4-22.1 21.8-30.9.8-.6.7-1.1-.4-.5-8.7 5.3-18.3 17-23.4 30.7-4.3 11.5-7.3 29.9.9 52.3-5.2 5.4-6.9 10.8-6.9 14.5h-.1c-2.8.8-10.2 2.8-27.7 4.7-10.9 1.2-23-.8-23.7-7.8-.4-3.7 1.2-7.8 10.4-16.5.4-.4.4-1 .1-1.4-2-2.5-3.1-11.3-2.7-21.9.5-14.1 3.2-29.3 6.9-37.9.2-.5 0-1-.4-1.3-11-8-15.2-20.1-15.5-28.1 0-.3-.2-.6-.4-.8-.3-.2-.6-.2-.9-.1-12.7 3.9-28.8 3.1-30.8 2.2-1-.4-1.9-.7-3.1.6-3.1 3.4-6.5 6.7-10.9 6.5.9-1.6 1.4-3.5 1.1-5.7-.3-3-1.9-4.6-3.9-5.4.3-.2.6-.5.8-.9 1.4-1.8 2-4.1 1.6-6.4-.4-2.8-2.7-4.6-5.2-5.2 2.4-1.7 4-5 4-5 .3-.5 0-1.2-.5-1.4-.5-.3-1.2 0-1.4.5-.5 1.1-2.1 3.6-3.8 4.5-.7.4-1.6.6-2.4.5-.7-.1-1.5-.3-1.6-1.2-.2-1.6-.6-6.4-.5-9.1v-.2c0-.3 0-.6.1-.8v-.3c.3-1.8.5-3.3 3.6-3.9 3.6-.6 8.2 2.8 11.2 5.1 1.5 1.1 2.6 1.9 3.4 2.2 1.3.5 1.5.5 2.4.3l.2-.1c9.9-2.9 21.9-11.2 29.8-18.1 8.3-7.2 6.6-13 5.8-15.8-1.3-4.4-7.1-8.8-13.8-8.4-3.7.3-5.6.7-12 2.3-1.5.4-3.3.8-5.5 1.3-.6.2-1.5.4-2.5.7-5.6 1.6-19.8 5.5-24.4 2 4.9-2.5 12.6-10.2 13.8-19.3 4.1.7 8.5 0 10.1-1.7-2.8.2-6.6.2-10.2-.7-3.4-.8-6.6-2.5-8.4-4.5.3 1.9 2.7 5.1 6.4 6.4-1.1 9.3-9.8 16.9-13.7 18.3-8.4-.3-16.6-9.9-19.6-22.8-2.1-9-5.8-25.4-10.2-44.8-1.4-6.4-3-13-4.5-19.5-3-13.1-6.2-26.5-8.6-38.3 6.2 11.4 14 22 22.1 30 10.4 10.3 20.4 15.6 28.2 14.7h.1c.3 0 .6-.2.8-.5.2-.3.2-.6.1-.9-1.5-5.4-4.2-16.3-5.4-23.2 2.2 3.2 5.4 7.2 9 10.8 4.5 4.5 11.2 9.8 17.1 9.5 2.1-.1 13.3-2.5 23.6-4.7 1.6-.4 2.9-.6 3.7-.8.4-.1.7-.4.8-.7.1-.4 0-.8-.2-1.1-4.1-4.2-8-8.8-9-13.5-.4-2.1-1.1-7 2.7-8.7.8-.4 1.8-.3 2.8.2 2 .9 4.8 3.4 6.4 8.1.8 2.4 1.7 8.2 1.6 13.1 0 .5.4 1 .9 1.1.5.1 1-.3 1.2-.8 1.8-8.3 4.2-14.2 7-17.6 2.9-3.5 6.6-4.5 10-2.8 1.3.6 1.6 2 1.7 3 .3 3.5-2.1 9.1-8.2 13.6-.4.3-.5.9-.3 1.3.2.5.7.7 1.2.6 12.7-3.5 19.4-3.2 26.1-1.7 6.1 1.4 12.3 4.6 17.6 8.9 7.6 6.2 13.9 13 20 25.8 5.6 11.9 11.5 26.6 18.9 47.6.5 1.4 1.3 1.9 2.7 1.8 12.8-1 30.8 6.5 40.1 16.8 12 13.2 16.1 22.9 17 39.8 0 .3.1.5.3.7 3.4 3.3 7.3 8.2 8.1 12 .4 2.2.1 5.1-.3 8.2-.4 3.1-.8 6.3-.4 9 .3 2.4 1.3 3.8 2.2 5.1.5.8 1.1 1.6 1.6 2.7.5 1.4.5 2.7.1 3.3m-218.6-14c-3.3.5-11.9.7-15.1-.4-.8-.3-1.5-1.6-1.8-3.2-.4-2 .2-5 1.4-5.9.7-.5 6.2-1 14.2-1.4 3.9-.2 4.8 2.4 5 4 .4 3.1-1.5 6.5-3.7 6.9M74 221.2c.1-.2.4-.4.7-.4 2.2-.3 4.1-.6 5.9-.9 2.8-.5 5.4-.9 8.6-1.1 2.3-.2 4.8 1.1 5.2 3.6.3 1.7-.2 3.5-1.2 4.8-.7.9-1.5 1.4-2.2 1.5-1.4.2-2.9.4-4.5.6-4.2.5-10 1.1-10.7.9-.7-.2-1.6-1.2-2.3-3.4-.2-1.2-.8-3.7.5-5.6m-13.5-4.6c-.3-.2-.7-.8-.8-1.9-.2-1.4.1-2.9.8-3.8 1-1.2 3.1-2.2 6-2.9 2.5-.5 12-1.2 16.7-1.5 0 2.9.3 6.9.5 8.5.1.8.5 1.5 1.1 2-1.5.2-3 .4-4.5.7-2.1.3-4.2.7-6.7 1-5.7.7-10.1 0-13.1-2.1m252 35.1c-.5-1.2-1.2-2.2-1.8-3-.9-1.3-1.6-2.3-1.9-4.2-.4-2.4 0-5.5.4-8.4.4-3.3.8-6.4.3-8.9-1-5.1-6.3-10.8-8.4-12.8-.9-17-5.4-27.4-17.5-40.7-9.9-10.9-28.3-18.6-41.8-17.5h-.3l-.2-.4c-7.4-21.1-13.3-35.8-19-47.8-6.6-13.9-13.8-21-20.5-26.5-5.5-4.5-12.1-7.9-18.4-9.4-6.2-1.5-12.4-1.9-22.9.6 3.4-3.5 6.1-8.2 5.7-12.5-.2-2.2-1.2-3.9-2.9-4.8-4.3-2.1-9-.9-12.5 3.4-2.2 2.7-4.1 6.5-5.7 11.7-.3-2.9-.8-5.4-1.4-6.9-1.6-4.5-4.4-8-7.6-9.3-1.6-.7-3.2-.7-4.6-.1-3.6 1.6-5 5.8-3.9 11.1 1 4.6 4.4 9 8.2 13.1-.5.1-1.2.3-1.8.4-6.8 1.5-21.1 4.6-23.2 4.7-4 .2-9.5-2.9-15.5-8.9-5-4.9-9.4-11-11.2-14.4-.2-.4-.7-.7-1.2-.5-.5.1-.8.6-.8 1.1.1 5.3 3.9 20.6 5.7 27.1-7 .1-15.9-4.9-25.3-14.2-9.5-9.5-18.6-22.5-25.1-36-.2-.5-.8-.7-1.3-.5-.5.2-.8.7-.7 1.2 2.5 13.4 6.3 29.8 10 45.7 1.5 6.4 3.1 13.1 4.5 19.5 4.4 19.4 8.1 35.8 10.2 44.8 3.2 13.7 12.1 23.9 21.3 24.5 4.6 5.8 19.9 1.5 27.3-.6 1.1-.3 1.9-.5 2.5-.7 2.2-.5 4-1 5.5-1.3 6.4-1.6 8.1-2 11.6-2.2 5.6-.4 10.6 3.3 11.6 6.8.7 2.5 2.1 7.3-5.2 13.6-7.7 6.7-19.3 14.9-29 17.6l-.2.1h-.2c-.1 0-.5-.2-.9-.3-.5-.2-1.6-1-2.8-1.9-3.4-2.5-8.4-6.3-12.9-5.5-4.6.8-5 3.7-5.3 5.6v.5c-4.4.3-14.5 1-17.3 1.6-3.5.7-5.9 2-7.2 3.6-1.3 1.6-1.5 3.9-1.3 5.5.2 1.5.8 2.7 1.7 3.3 3 2.1 7.1 2.9 12.3 2.6-1 2.4-.6 5.2.4 7.4.5 1.3 1.4 2.6 2.4 3.3-1.3 2-1.5 4.8-1.1 6.8.5 2.5 1.6 4.3 3.2 4.8 3.5 1.2 11.2 1.1 14.9.7.5-.1.9-.1 1.2-.2 1-.2 2-.7 2.8-1.5 6.1 1 10.4-3.1 14.1-7.1l.2-.2c.1 0 .2.1.5.2 2.7 1.1 18.2 1.8 31-1.8.7 8.2 5.1 19.9 15.6 27.8-3.6 9-6.3 24-6.8 37.9-.3 8.3.3 18.2 2.7 22.4-9.2 8.9-10.8 13.3-10.4 17.6.4 3.4 2.9 6.2 7.1 8 4.6 1.9 11.2 2.5 19 1.7 17.3-1.8 24.9-3.9 27.9-4.7.4 1.3 1.3 2.5 2.6 3.4 2.4 1.9 6.1 2.7 10 2.2.4 0 .8-.1 1.1-.2 11.3-1.8 49.3-6.2 55.8-6.9 6.1-.6 13.7-9.5 13.1-15.2-1.4-12.8-3-19.1-4.3-24.1-1-3.7-1.8-6.7-2.1-11.1-.5-7.9-.9-15.3-1.3-22.4-.5-10.4-1-19.5-1.8-27.6-.5-4.8-1.6-7.9-2.7-11-1-3-2.1-6.1-2.7-10.9-.8-6.6-.1-9.9.3-11.4 0-.2.1-.3.1-.5v-.1c.1 0 .1.1.2.1 3.5 2 11.6 8.2 12.4 21.3-3 3.4-7.3 9.6-5.6 13.1.7 1.4 1.8 2.3 3.2 2.7 3.2.8 8-1 14.4-5.4 1.1.2 2.1.4 2.5 2.4 2.3 11.7 12.3 14.9 16.5 15.7 2.5.5 3.8-.4 4.5-1.2.9-1.4.9-3.3 0-5.5"
       id="path4" /><path
       class="st3"
       d="M67.7 136.6c-.9 0-2.3.6-2.2 3.8.2 4.3 2.7 6.7 3.2 6.5.6-.3-.2-1.7-.1-3.5.1-1.6.9-2.4.9-3.6 0-1.9-.9-3.2-1.8-3.2m70.6-33.1c-4.5.5-7.8 4.5-7.3 9s4.5 7.8 9 7.3 7.8-4.5 7.3-9c-.5-4.6-4.5-7.8-9-7.3"
       id="path5" /><path
       class="st0"
       d="M137.3 110.5c-.1-1.1-1.1-1.9-2.2-1.8-1.1.1-1.9 1.1-1.8 2.2.1 1.1 1.1 1.9 2.2 1.8 1.1 0 1.9-1 1.8-2.2"
       id="path6" /></g></svg>
