<?xml version="1.0" encoding="UTF-8" standalone="no"?>
<svg
   id="Layer_1"
   data-name="Layer 1"
   viewBox="0 0 500 500"
   version="1.1"
   sodipodi:docname="oVirt-profile-logo_greyscale.svg"
   inkscape:version="1.3.2 (091e20ef0f, 2023-11-25, custom)"
   xmlns:inkscape="http://www.inkscape.org/namespaces/inkscape"
   xmlns:sodipodi="http://sodipodi.sourceforge.net/DTD/sodipodi-0.dtd"
   xmlns:xlink="http://www.w3.org/1999/xlink"
   xmlns="http://www.w3.org/2000/svg"
   xmlns:svg="http://www.w3.org/2000/svg"
   xmlns:rdf="http://www.w3.org/1999/02/22-rdf-syntax-ns#"
   xmlns:cc="http://creativecommons.org/ns#"
   xmlns:dc="http://purl.org/dc/elements/1.1/">
  <sodipodi:namedview
     id="namedview9"
     pagecolor="#ffffff"
     bordercolor="#000000"
     borderopacity="0.25"
     inkscape:showpageshadow="2"
     inkscape:pageopacity="0.0"
     inkscape:pagecheckerboard="0"
     inkscape:deskcolor="#d1d1d1"
     inkscape:zoom="1.292"
     inkscape:cx="249.613"
     inkscape:cy="250"
     inkscape:window-width="1600"
     inkscape:window-height="828"
     inkscape:window-x="0"
     inkscape:window-y="0"
     inkscape:window-maximized="1"
     inkscape:current-layer="Layer_1" />
  <defs
     id="defs4">
    <style
       id="style1">.cls-1{fill:none;}.cls-2{clip-path:url(#clip-path);}.cls-3{fill:url(#linear-gradient);}.cls-4{fill:#25292e;}.cls-5{fill:#d1d1d1;}.cls-6{fill:#fff;}.cls-7{fill:url(#linear-gradient-2);}.cls-8{fill:url(#linear-gradient-3);}.cls-9{opacity:0.8;fill:url(#linear-gradient-4);}</style>
    <clipPath
       id="clip-path">
      <rect
         class="cls-1"
         x="-0.23"
         y="-0.13"
         width="500.23"
         height="499.58"
         id="rect1" />
    </clipPath>
    <linearGradient
       id="linear-gradient"
       x1="-0.23"
       y1="249.66"
       x2="500"
       y2="249.66"
       gradientUnits="userSpaceOnUse">
      <stop
         offset="0"
         stop-color="#004d7c"
         id="stop1" />
      <stop
         offset="1"
         stop-color="#102f4e"
         id="stop2" />
    </linearGradient>
    <linearGradient
       id="linear-gradient-2"
       x1="146.61"
       y1="122.96"
       x2="-101.81"
       y2="-149.32"
       gradientUnits="userSpaceOnUse">
      <stop
         offset="0"
         stop-color="#0f87c9"
         id="stop3" />
      <stop
         offset="1"
         stop-color="#00b2ec"
         id="stop4" />
    </linearGradient>
    <linearGradient
       id="linear-gradient-3"
       x1="654.26"
       y1="-7632.54"
       x2="405.84"
       y2="-7904.81"
       gradientTransform="translate(1086.33 -7154.68) rotate(180)"
       xlink:href="#linear-gradient-2" />
    <linearGradient
       id="linear-gradient-4"
       x1="-623.86"
       y1="-7446.41"
       x2="-872.22"
       y2="-7718.62"
       gradientTransform="matrix(-0.95, -0.32, 0.32, -0.95, 2197.45, -6762.61)"
       xlink:href="#linear-gradient-2" />
    <filter
       style="color-interpolation-filters:sRGB;"
       inkscape:label="Greyscale"
       id="filter9"
       x="0"
       y="0"
       width="1"
       height="1">
      <feColorMatrix
         values="0.21 0.72 0.072 0 0 0.21 0.72 0.072 0 0 0.21 0.72 0.072 0 0 0 0 0 1 0 "
         id="feColorMatrix9" />
    </filter>
  </defs>
  <title
     id="title4">GitHub Profile Image</title>
  <g
     class="cls-2"
     clip-path="url(#clip-path)"
     id="g9"
     style="filter:url(#filter9)">
    <rect
       class="cls-3"
       x="-0.23"
       y="-0.13"
       width="500.23"
       height="499.58"
       id="rect4" />
    <path
       class="cls-4"
       d="M503.5,0c-1.09,0-2.16-.08-3.25-.08C223.92-.13-.09,223.52-.23,499.45H503.5Z"
       id="path4" />
    <path
       id="path6"
       class="cls-5"
       d="M174,250.72c-46.23,0-83.71,36.26-83.71,81s37.48,80.86,83.71,80.86,83.63-36.17,83.63-80.86S220.2,250.72,174,250.72Zm0,12.81c29.22,0,52.88,30.57,52.88,68.15S203.21,399.74,174,399.74s-53-30.45-53-68.06S144.75,263.53,174,263.53Z" />
    <path
       class="cls-6"
       d="M222.19,179.44l17.52,11.78L285.82,303l39.33,106H347l44.69-114.24c14.3-37.13,36.82-90.32,45.76-108.18l7.86-7.14H422.38l.36,1.79L387.35,278l-39.68,95.33-4.65-.72-34-85.33-39.68-102.1a32.39,32.39,0,0,1-.36-5.71H222.19"
       id="path5" />
    <path
       class="cls-7"
       d="M488.42-64.63-7.18-16.25l-9.27,522.72,16.22-7C-.1,225.44,214-64.63,488.42-64.63"
       id="path7" />
    <path
       class="cls-8"
       d="M90.26,665.44l495.6-48.38,9.27-522.71-16.22,7c-.13,274-214.24,564.08-488.65,564.08"
       id="path8" />
    <path
       class="cls-9"
       d="M-10.5,550.77,474.05,665.44,652.48,174l-17.62,1.38C545.79,434.52,249.09,639.6-10.5,550.77"
       id="path9" />
  </g>
  <metadata
     id="metadata9">
    <rdf:RDF>
      <cc:Work
         rdf:about="">
        <dc:title>GitHub Profile Image</dc:title>
      </cc:Work>
    </rdf:RDF>
  </metadata>
</svg>
