<?xml version="1.0" encoding="UTF-8" standalone="no"?>
<svg
   enable-background="new 0 0 975.937 293.293"
   height="276.44699"
   viewBox="0 0 276.453 276.44699"
   width="276.453"
   version="1.1"
   id="svg34"
   sodipodi:docname="Red_Hat_Logo_1999_greyscale.svg"
   inkscape:version="1.3.2 (091e20ef0f, 2023-11-25, custom)"
   xmlns:inkscape="http://www.inkscape.org/namespaces/inkscape"
   xmlns:sodipodi="http://sodipodi.sourceforge.net/DTD/sodipodi-0.dtd"
   xmlns="http://www.w3.org/2000/svg"
   xmlns:svg="http://www.w3.org/2000/svg">
  <sodipodi:namedview
     id="namedview1"
     pagecolor="#ffffff"
     bordercolor="#000000"
     borderopacity="0.25"
     inkscape:showpageshadow="2"
     inkscape:pageopacity="0.0"
     inkscape:pagecheckerboard="0"
     inkscape:deskcolor="#d1d1d1"
     inkscape:zoom="1.2565632"
     inkscape:cx="419"
     inkscape:cy="138.47293"
     inkscape:window-width="1600"
     inkscape:window-height="828"
     inkscape:window-x="0"
     inkscape:window-y="0"
     inkscape:window-maximized="1"
     inkscape:current-layer="svg34" />
  <defs
     id="defs38">
    <filter
       style="color-interpolation-filters:sRGB;"
       inkscape:label="Greyscale"
       id="filter1"
       x="0"
       y="0"
       width="1"
       height="1">
      <feColorMatrix
         values="0.21 0.72 0.072 0 0 0.21 0.72 0.072 0 0 0.21 0.72 0.072 0 0 0 0 0 1 0 "
         id="feColorMatrix1" />
    </filter>
    <filter
       style="color-interpolation-filters:sRGB;"
       inkscape:label="Greyscale"
       id="filter2"
       x="0"
       y="0"
       width="1"
       height="1">
      <feColorMatrix
         values="0.21 0.72 0.072 0 0 0.21 0.72 0.072 0 0 0.21 0.72 0.072 0 0 0 0 0 1 0 "
         id="feColorMatrix2" />
    </filter>
    <filter
       style="color-interpolation-filters:sRGB;"
       inkscape:label="Greyscale"
       id="filter3"
       x="0"
       y="0"
       width="1"
       height="1">
      <feColorMatrix
         values="0.21 0.72 0.072 0 0 0.21 0.72 0.072 0 0 0.21 0.72 0.072 0 0 0 0 0 1 0 "
         id="feColorMatrix3" />
    </filter>
    <filter
       style="color-interpolation-filters:sRGB;"
       inkscape:label="Greyscale"
       id="filter4"
       x="0"
       y="0"
       width="1"
       height="1">
      <feColorMatrix
         values="0.21 0.72 0.072 0 0 0.21 0.72 0.072 0 0 0.21 0.72 0.072 0 0 0 0 0 1 0 "
         id="feColorMatrix4" />
    </filter>
  </defs>
  <clipPath
     id="a">
    <path
       d="m 33.616,11.598 h 852.77 V 288.047 H 33.616 Z"
       id="path9" />
  </clipPath>
  <path
     clip-path="url(#a)"
     d="m 287.882,224.983 c -5.33,-1.223 -10.977,-1.989 -16.698,-1.989 -9.773,0 -18.67,1.688 -25.23,4.427 -0.731,0.355 -1.242,1.113 -1.242,1.971 0,0.311 0.082,0.63 0.202,0.895 0.775,2.254 -0.503,4.689 -6.854,6.086 -9.418,2.072 -15.357,11.781 -18.761,15.01 -3.996,3.797 -15.274,6.133 -13.577,3.869 1.323,-1.77 6.405,-7.281 9.489,-13.249 2.765,-5.319 5.22,-6.835 8.614,-11.917 0.994,-1.488 4.845,-6.725 5.968,-10.868 1.259,-4.052 0.831,-9.124 1.313,-11.214 0.694,-3.012 3.542,-9.544 3.75,-13.241 0.128,-2.089 -8.713,2.975 -12.912,2.975 -4.197,0 -8.285,-2.5 -12.026,-2.682 -4.645,-0.229 -7.619,3.577 -11.817,2.911 -2.399,-0.384 -4.416,-2.491 -8.604,-2.655 -5.967,-0.22 -13.249,3.321 -26.936,2.874 -13.459,-0.429 -25.897,-17.008 -27.594,-19.646 -1.988,-3.094 -4.417,-3.094 -7.062,-0.657 -2.655,2.418 -5.913,0.52 -6.843,-1.113 -1.771,-3.085 -6.489,-12.118 -13.798,-14.016 -10.11,-2.619 -15.237,5.602 -14.572,12.145 0.675,6.635 4.974,8.497 6.954,12.028 1.99,3.531 3.001,5.812 6.744,7.372 2.655,1.104 3.641,2.737 2.847,4.909 -0.693,1.898 -3.449,2.336 -5.256,2.419 -3.859,0.182 -6.561,-0.858 -8.522,-2.118 -2.29,-1.459 -4.161,-3.485 -6.16,-6.934 -2.308,-3.797 -5.949,-5.458 -10.192,-5.458 -2.025,0 -3.914,0.539 -5.602,1.406 -6.652,3.459 -14.564,5.51 -23.095,5.51 H 40.801 C 36.119,180.155 33.584,165.3 33.584,149.842 33.584,73.494 95.478,11.6 171.835,11.6 c 76.348,0 138.234,61.894 138.234,138.242 -0.004,27.702 -8.153,53.506 -22.187,75.141"
     id="path26"
     transform="translate(-33.616,-11.6)"
     style="filter:url(#filter4)" />
  <path
     clip-path="url(#a)"
     d="m 287.882,224.983 c -5.33,-1.223 -10.977,-1.998 -16.698,-1.998 -9.773,0 -18.67,1.697 -25.23,4.426 -0.731,0.356 -1.242,1.113 -1.242,1.98 0,0.311 0.082,0.63 0.202,0.895 0.775,2.244 -0.503,4.689 -6.854,6.086 -9.418,2.061 -15.357,11.781 -18.761,15 -3.996,3.807 -15.274,6.133 -13.577,3.871 1.323,-1.762 6.405,-7.281 9.489,-13.241 2.765,-5.319 5.22,-6.843 8.614,-11.927 0.994,-1.486 4.845,-6.725 5.968,-10.867 1.259,-4.043 0.831,-9.115 1.313,-11.205 0.694,-3.012 3.542,-9.554 3.75,-13.25 0.128,-2.08 -8.713,2.983 -12.912,2.983 -4.197,0 -8.285,-2.509 -12.026,-2.691 -4.645,-0.22 -7.619,3.577 -11.817,2.919 -2.399,-0.392 -4.416,-2.5 -8.604,-2.655 -5.967,-0.22 -13.249,3.312 -26.936,2.874 -13.459,-0.438 -25.897,-17.018 -27.594,-19.655 -1.988,-3.084 -4.417,-3.084 -7.062,-0.656 -2.655,2.426 -5.913,0.519 -6.843,-1.114 -1.771,-3.085 -6.489,-12.118 -13.798,-14.007 -10.11,-2.619 -15.237,5.594 -14.572,12.136 0.675,6.643 4.974,8.505 6.954,12.026 1.99,3.541 3.001,5.813 6.744,7.374 2.655,1.104 3.641,2.737 2.847,4.917 -0.693,1.889 -3.449,2.327 -5.256,2.409 -3.859,0.192 -6.561,-0.857 -8.522,-2.107 -2.29,-1.469 -4.161,-3.495 -6.16,-6.934 -2.308,-3.806 -5.949,-5.467 -10.192,-5.467 -2.025,0 -3.914,0.539 -5.602,1.406 -6.652,3.468 -14.564,5.512 -23.095,5.512 l -9.609,0.008 c 18.433,54.678 70.134,94.051 131.034,94.051 48.632,0.001 91.41,-25.119 116.047,-63.099"
     fill="#ffffff"
     id="path28"
     transform="translate(-33.616,-11.6)"
     style="filter:url(#filter3)" />
  <path
     d="m 168.65501,200.709 c 0.712,0.693 1.936,3.029 0.438,5.986 -0.839,1.57 -1.743,2.674 -3.358,3.961 -1.944,1.559 -5.749,3.357 -10.959,0.055 -2.801,-1.78 -2.974,-2.373 -6.844,-1.871 -2.765,0.355 -3.869,-2.428 -2.875,-4.754 0.995,-2.309 5.083,-4.189 10.157,-1.205 2.29,1.341 5.849,4.17 8.969,1.661 1.287,-1.04 2.062,-1.726 3.86,-3.797 0.082,-0.091 0.192,-0.146 0.32,-0.146 0.11,0.001 0.22,0.046 0.292,0.11"
     id="path30"
     style="filter:url(#filter2)" />
  <path
     d="m 127.45701,65.825001 c -15.968,1.158 -17.629,2.883 -20.622,6.067 -4.216,4.489 -9.773,-5.831 -9.773,-5.831 -3.33,-0.703 -7.372,-6.078 -5.192,-11.096 2.145,-4.963 6.114,-3.476 7.354,-1.926 1.515,1.88 4.745,4.956 8.933,4.846 4.19,-0.11 9.025,-0.994 15.769,-0.994 6.834,0 11.434,2.554 11.688,4.745 0.22,1.871 -0.555,3.642 -8.157,4.189 m 16.771,-26.39 c -0.027,0.009 -0.045,0.009 -0.072,0.009 -0.246,0 -0.447,-0.191 -0.447,-0.419 0,-0.165 0.1,-0.311 0.255,-0.375 3.094,-1.642 7.71,-2.938 12.994,-3.476 1.588,-0.165 3.139,-0.247 4.626,-0.265 0.264,0 0.529,0.009 0.793,0.009 8.86,0.202 15.96,3.723 15.85,7.867 -0.109,4.142 -7.372,7.336 -16.232,7.144 -2.866,-0.073 -5.558,-0.483 -7.875,-1.149 -0.273,-0.074 -0.475,-0.311 -0.475,-0.584 0,-0.283 0.202,-0.511 0.475,-0.583 5.53,-1.278 9.262,-3.368 8.997,-5.348 -0.347,-2.619 -7.573,-4.042 -16.151,-3.175 -0.93,0.09 -1.853,0.208 -2.738,0.345 z m 71.987,62.022999 c -1.359,4.598 -3.303,10.466 -11.945,14.91 -1.259,0.638 -1.742,-0.42 -1.159,-1.414 3.267,-5.548 3.842,-6.945 4.792,-9.135 1.331,-3.203 2.026,-7.765999 -0.612,-17.273999 -5.202,-18.706 -16.051,-43.716 -23.936,-51.829 -7.601,-7.83 -21.389,-10.029 -33.853,-6.834 -4.581,1.176 -13.56,5.85 -30.212,2.098 -28.817,-6.488 -33.087,7.938 -34.738,14.226 -1.652,6.288 -5.621,24.145 -5.621,24.145 -1.323,7.282 -3.057,19.93 41.683,28.452 20.841,3.968999 21.899,9.352999 22.83,13.230999 1.652,6.944 4.298,10.922 7.274,12.902 2.974,1.99 0,3.632 -3.304,3.969 -8.878,0.921 -41.683,-8.486 -61.092,-19.518 -15.885,-9.699999 -16.151,-18.440999 -12.518,-25.851999 -23.98,-2.6 -41.985,2.246 -45.251,13.596 -5.603,19.500999 42.85,52.778999 98.02,69.486999 57.888,17.528 117.438,5.292 124.053,-31.098 3.002,-16.534 -10.923,-28.76 -34.411,-34.062 z"
     fill="#ef1209"
     id="path32"
     style="filter:url(#filter1)" />
</svg>
