<?xml version="1.0" encoding="UTF-8" standalone="no"?>
<svg
   width="1000"
   height="883"
   version="1.1"
   id="svg1"
   sodipodi:docname="winxp.svg"
   inkscape:version="1.3.2 (091e20ef0f, 2023-11-25, custom)"
   xmlns:inkscape="http://www.inkscape.org/namespaces/inkscape"
   xmlns:sodipodi="http://sodipodi.sourceforge.net/DTD/sodipodi-0.dtd"
   xmlns="http://www.w3.org/2000/svg"
   xmlns:svg="http://www.w3.org/2000/svg">
  <defs
     id="defs1" />
  <sodipodi:namedview
     id="namedview1"
     pagecolor="#ffffff"
     bordercolor="#000000"
     borderopacity="0.25"
     inkscape:showpageshadow="2"
     inkscape:pageopacity="0.0"
     inkscape:pagecheckerboard="0"
     inkscape:deskcolor="#d1d1d1"
     inkscape:zoom="0.70668177"
     inkscape:cx="500.22516"
     inkscape:cy="441.5"
     inkscape:window-width="1600"
     inkscape:window-height="828"
     inkscape:window-x="0"
     inkscape:window-y="0"
     inkscape:window-maximized="1"
     inkscape:current-layer="svg1" />
  <path
     style="display:inline;fill:#000"
     d="M583 882.345c-59.334-5.686-105.42-20.94-157.262-52.05-17.86-10.717-23.602-14.89-24.27-17.632-.29-1.194 3.03-14.479 7.413-29.663a450241.39 450241.39 0 0 1 19.64-68c6.436-22.275 16.176-56.025 21.646-75 5.47-18.975 13.716-47.55 18.323-63.5 4.607-15.95 12.242-42.5 16.966-59l8.589-30 4.574-4.25c2.516-2.337 5.464-4.25 6.552-4.25 1.088 0 7.457 3.54 14.153 7.868 48.667 31.448 88.182 46.773 138.676 53.781 17.228 2.391 60.587 2.39 81.2-.004 37.744-4.382 82.864-14.663 124.094-28.276 6.265-2.069 11.72-3.32 13-2.981 3.443.909 10.706 8.218 10.706 10.774 0 1.234-16.243 58.965-36.096 128.29l-45.346 158.343c-5.087 17.763-9.694 32.74-10.237 33.284-.544.543-6.575 3.242-13.405 5.997-48.942 19.747-92.907 30.971-138.916 35.466-12.783 1.25-50.129 1.749-60 .803zM340.487 775.847c-38.825-23.713-70.173-36.893-103.987-43.72-20.283-4.095-31.022-5.127-53.355-5.127-30.907 0-55.64 3.375-91.645 12.506-20.077 5.092-55.273 16.246-71.101 22.534-4.098 1.628-8.452 2.959-9.675 2.957-1.223 0-4.236-1.737-6.694-3.857l-4.47-3.855 46.374-162.392C71.44 505.577 92.706 431.712 93.19 430.748c1.024-2.034 2.716-2.8 24.81-11.222 121.092-46.164 213.436-45.717 299.117 1.45 13.486 7.424 37.783 22.477 42.158 26.12l3.117 2.595-3.32 11.404c-1.825 6.273-4.572 15.68-6.103 20.905-10.928 37.283-40.442 138.341-41.47 142-.697 2.475-9.687 33.3-19.979 68.5-10.291 35.2-20.069 68.725-21.727 74.5-1.66 5.775-3.445 11.312-3.968 12.304-1.118 2.116-6.661 5.687-8.838 5.692-.832.002-8.257-4.115-16.5-9.15zM698.5 501.952c-56.664-2.436-104.27-17.738-161.5-51.912-21.184-12.65-24.959-15.276-25.633-17.833-.366-1.384 1.41-9.306 4.483-20 8.819-30.69 27.797-96.4 41.65-144.207a69588.345 69588.345 0 0 0 17.044-59l21.024-72.871c5.138-17.805 9.474-32.503 9.637-32.664 3.142-3.107 8.642-6.465 10.588-6.465 1.463 0 7.799 3.438 15.113 8.2 50.997 33.204 93.289 49.46 142.594 54.807 22.714 2.463 59.155.98 87.5-3.559 31.934-5.115 78.026-18.588 114.958-33.603C981.16 120.73 986.286 119 987.35 119c2.715 0 11.618 7.02 12.288 9.688.305 1.219-.142 4.375-.994 7.014-.853 2.639-4.47 14.923-8.039 27.298-36.607 126.951-85.906 294.724-86.88 295.67-2.034 1.98-32.229 14.16-48.224 19.456-36.374 12.043-84.825 21.75-116.5 23.343-6.325.317-14.2.72-17.5.896-3.3.175-13.65-.011-23-.413zM453.21 390.555c-46.203-27.566-79.714-40.306-124.21-47.22-15.677-2.436-54.012-2.425-72.469.021-38.157 5.058-87.913 18.497-127.807 34.52-4.277 1.719-8.377 3.124-9.113 3.124-1.556 0-8.734-5.5-9.921-7.603-.743-1.315 1.564-9.808 18.307-67.397 2.159-7.425 7.56-26.1 12.003-41.5 4.443-15.4 9.843-34.075 12-41.5 2.157-7.425 7.557-26.1 12-41.5 7.95-27.556 11.788-40.822 20.688-71.5 2.473-8.525 5.993-20.675 7.822-27 1.83-6.325 5.225-17.905 7.546-25.733l4.22-14.234 17.612-6.9C312.963.453 391.5-8.593 457.58 8.988c33.021 8.785 62.986 22.955 100.671 47.605C568.927 63.577 571 65.337 571 67.418c0 2.125-6.317 24.49-26.995 95.582-2.16 7.425-7.562 26.1-12.005 41.5-4.443 15.4-9.843 34.075-12 41.5-9.349 32.179-32.979 113.872-38.615 133.5-1.895 6.6-3.689 12.79-3.985 13.757-.42 1.368-7.781 5.743-9.664 5.743-.205 0-6.742-3.8-14.527-8.445z"
     id="path1" />
</svg>
